<mxfile host="app.diagrams.net" modified="2023-04-24T00:07:18.975Z" agent="Mozilla/5.0 (X11; Linux x86_64; rv:109.0) Gecko/20100101 Firefox/110.0" etag="uyjQwRswYKQGUq2U5DNb" version="21.2.1" type="github">
  <diagram name="Page-1" id="5f0bae14-7c28-e335-631c-24af17079c00">
    <mxGraphModel dx="1394" dy="1630" grid="1" gridSize="10" guides="1" tooltips="1" connect="1" arrows="1" fold="1" page="1" pageScale="1" pageWidth="1100" pageHeight="850" background="none" math="0" shadow="0">
      <root>
        <mxCell id="0" />
        <mxCell id="1" parent="0" />
        <mxCell id="nEnXex_U3Cf0WmQbwt_v-16" style="edgeStyle=orthogonalEdgeStyle;rounded=0;orthogonalLoop=1;jettySize=auto;html=1;entryX=0;entryY=0;entryDx=80;entryDy=330;entryPerimeter=0;" edge="1" parent="1" source="39150e848f15840c-1" target="39150e848f15840c-2">
          <mxGeometry relative="1" as="geometry" />
        </mxCell>
        <mxCell id="nEnXex_U3Cf0WmQbwt_v-26" value="???" style="edgeLabel;html=1;align=center;verticalAlign=middle;resizable=0;points=[];" vertex="1" connectable="0" parent="nEnXex_U3Cf0WmQbwt_v-16">
          <mxGeometry x="0.1385" y="-1" relative="1" as="geometry">
            <mxPoint as="offset" />
          </mxGeometry>
        </mxCell>
        <mxCell id="nEnXex_U3Cf0WmQbwt_v-17" value="???" style="edgeStyle=orthogonalEdgeStyle;rounded=0;orthogonalLoop=1;jettySize=auto;html=1;entryX=0;entryY=0;entryDx=80;entryDy=330;entryPerimeter=0;" edge="1" parent="1" source="39150e848f15840c-1" target="39150e848f15840c-3">
          <mxGeometry relative="1" as="geometry" />
        </mxCell>
        <mxCell id="39150e848f15840c-1" value="Scrapers" style="verticalAlign=top;align=left;spacingTop=8;spacingLeft=2;spacingRight=12;shape=cube;size=10;direction=south;fontStyle=4;html=1;rounded=0;shadow=0;comic=0;labelBackgroundColor=none;strokeWidth=1;fontFamily=Verdana;fontSize=12" parent="1" vertex="1">
          <mxGeometry x="130" y="90" width="330" height="150" as="geometry" />
        </mxCell>
        <mxCell id="nEnXex_U3Cf0WmQbwt_v-28" style="edgeStyle=orthogonalEdgeStyle;rounded=0;orthogonalLoop=1;jettySize=auto;html=1;" edge="1" parent="1" source="39150e848f15840c-2" target="nEnXex_U3Cf0WmQbwt_v-18">
          <mxGeometry relative="1" as="geometry" />
        </mxCell>
        <mxCell id="nEnXex_U3Cf0WmQbwt_v-35" style="edgeStyle=orthogonalEdgeStyle;rounded=0;orthogonalLoop=1;jettySize=auto;html=1;entryX=0.493;entryY=1;entryDx=0;entryDy=0;entryPerimeter=0;" edge="1" parent="1" source="39150e848f15840c-2" target="nEnXex_U3Cf0WmQbwt_v-30">
          <mxGeometry relative="1" as="geometry" />
        </mxCell>
        <mxCell id="nEnXex_U3Cf0WmQbwt_v-38" value="???" style="edgeLabel;html=1;align=center;verticalAlign=middle;resizable=0;points=[];" vertex="1" connectable="0" parent="nEnXex_U3Cf0WmQbwt_v-35">
          <mxGeometry x="-0.8997" y="-1" relative="1" as="geometry">
            <mxPoint as="offset" />
          </mxGeometry>
        </mxCell>
        <mxCell id="39150e848f15840c-2" value="&lt;div&gt;People&lt;/div&gt;" style="verticalAlign=top;align=left;spacingTop=8;spacingLeft=2;spacingRight=12;shape=cube;size=10;direction=south;fontStyle=4;html=1;rounded=0;shadow=0;comic=0;labelBackgroundColor=none;strokeWidth=1;fontFamily=Verdana;fontSize=12" parent="1" vertex="1">
          <mxGeometry x="550" y="-20" width="330" height="150" as="geometry" />
        </mxCell>
        <mxCell id="nEnXex_U3Cf0WmQbwt_v-29" style="edgeStyle=orthogonalEdgeStyle;rounded=0;orthogonalLoop=1;jettySize=auto;html=1;entryX=0.493;entryY=1;entryDx=0;entryDy=0;entryPerimeter=0;" edge="1" parent="1" source="39150e848f15840c-3" target="nEnXex_U3Cf0WmQbwt_v-18">
          <mxGeometry relative="1" as="geometry" />
        </mxCell>
        <mxCell id="nEnXex_U3Cf0WmQbwt_v-39" value="???" style="edgeLabel;html=1;align=center;verticalAlign=middle;resizable=0;points=[];" vertex="1" connectable="0" parent="nEnXex_U3Cf0WmQbwt_v-29">
          <mxGeometry x="0.912" y="-2" relative="1" as="geometry">
            <mxPoint x="-15" y="-1" as="offset" />
          </mxGeometry>
        </mxCell>
        <mxCell id="nEnXex_U3Cf0WmQbwt_v-36" style="edgeStyle=orthogonalEdgeStyle;rounded=0;orthogonalLoop=1;jettySize=auto;html=1;" edge="1" parent="1" source="39150e848f15840c-3" target="nEnXex_U3Cf0WmQbwt_v-30">
          <mxGeometry relative="1" as="geometry" />
        </mxCell>
        <mxCell id="nEnXex_U3Cf0WmQbwt_v-37" value="&lt;div&gt;???&lt;/div&gt;" style="edgeLabel;html=1;align=center;verticalAlign=middle;resizable=0;points=[];" vertex="1" connectable="0" parent="nEnXex_U3Cf0WmQbwt_v-36">
          <mxGeometry x="-0.6833" relative="1" as="geometry">
            <mxPoint as="offset" />
          </mxGeometry>
        </mxCell>
        <mxCell id="nEnXex_U3Cf0WmQbwt_v-40" value="???" style="edgeLabel;html=1;align=center;verticalAlign=middle;resizable=0;points=[];" vertex="1" connectable="0" parent="nEnXex_U3Cf0WmQbwt_v-36">
          <mxGeometry x="0.75" y="-1" relative="1" as="geometry">
            <mxPoint x="-15" as="offset" />
          </mxGeometry>
        </mxCell>
        <mxCell id="39150e848f15840c-3" value="core" style="verticalAlign=top;align=left;spacingTop=8;spacingLeft=2;spacingRight=12;shape=cube;size=10;direction=south;fontStyle=4;html=1;rounded=0;shadow=0;comic=0;labelBackgroundColor=none;strokeWidth=1;fontFamily=Verdana;fontSize=12" parent="1" vertex="1">
          <mxGeometry x="550" y="200" width="330" height="150" as="geometry" />
        </mxCell>
        <mxCell id="nEnXex_U3Cf0WmQbwt_v-1" value="Gets data from websites, stores it in DB" style="text;html=1;strokeColor=none;fillColor=none;align=center;verticalAlign=middle;whiteSpace=wrap;rounded=0;" vertex="1" parent="1">
          <mxGeometry x="130" y="120" width="230" height="30" as="geometry" />
        </mxCell>
        <mxCell id="nEnXex_U3Cf0WmQbwt_v-2" value="Repository of people and committee data, in YAML" style="text;html=1;strokeColor=none;fillColor=none;align=center;verticalAlign=middle;whiteSpace=wrap;rounded=0;" vertex="1" parent="1">
          <mxGeometry x="550" y="10" width="300" height="30" as="geometry" />
        </mxCell>
        <mxCell id="nEnXex_U3Cf0WmQbwt_v-3" value="" style="image;aspect=fixed;perimeter=ellipsePerimeter;html=1;align=center;shadow=0;dashed=0;spacingTop=3;image=img/lib/active_directory/documents.svg;" vertex="1" parent="1">
          <mxGeometry x="590" y="65" width="33" height="50" as="geometry" />
        </mxCell>
        <mxCell id="nEnXex_U3Cf0WmQbwt_v-4" value="" style="image;aspect=fixed;perimeter=ellipsePerimeter;html=1;align=center;shadow=0;dashed=0;spacingTop=3;image=img/lib/active_directory/documents.svg;" vertex="1" parent="1">
          <mxGeometry x="640" y="65" width="33" height="50" as="geometry" />
        </mxCell>
        <mxCell id="nEnXex_U3Cf0WmQbwt_v-5" value="" style="image;aspect=fixed;perimeter=ellipsePerimeter;html=1;align=center;shadow=0;dashed=0;spacingTop=3;image=img/lib/active_directory/documents.svg;" vertex="1" parent="1">
          <mxGeometry x="690" y="65" width="33" height="50" as="geometry" />
        </mxCell>
        <mxCell id="nEnXex_U3Cf0WmQbwt_v-6" value="" style="image;aspect=fixed;perimeter=ellipsePerimeter;html=1;align=center;shadow=0;dashed=0;spacingTop=3;image=img/lib/active_directory/documents.svg;" vertex="1" parent="1">
          <mxGeometry x="740" y="65" width="33" height="50" as="geometry" />
        </mxCell>
        <mxCell id="nEnXex_U3Cf0WmQbwt_v-7" value="" style="image;aspect=fixed;perimeter=ellipsePerimeter;html=1;align=center;shadow=0;dashed=0;spacingTop=3;image=img/lib/active_directory/documents.svg;" vertex="1" parent="1">
          <mxGeometry x="787" y="65" width="33" height="50" as="geometry" />
        </mxCell>
        <mxCell id="nEnXex_U3Cf0WmQbwt_v-8" value="Data models &amp;amp; scraper backend" style="text;html=1;strokeColor=none;fillColor=none;align=center;verticalAlign=middle;whiteSpace=wrap;rounded=0;" vertex="1" parent="1">
          <mxGeometry x="571.5" y="230" width="210" height="30" as="geometry" />
        </mxCell>
        <mxCell id="nEnXex_U3Cf0WmQbwt_v-9" value="" style="sketch=0;outlineConnect=0;fontColor=#232F3E;gradientColor=none;fillColor=#232F3D;strokeColor=none;dashed=0;verticalLabelPosition=bottom;verticalAlign=top;align=center;html=1;fontSize=12;fontStyle=0;aspect=fixed;pointerEvents=1;shape=mxgraph.aws4.gear;" vertex="1" parent="1">
          <mxGeometry x="741.5" y="275" width="50" height="50" as="geometry" />
        </mxCell>
        <mxCell id="nEnXex_U3Cf0WmQbwt_v-10" value="" style="sketch=0;outlineConnect=0;fontColor=#232F3E;gradientColor=none;fillColor=#232F3D;strokeColor=none;dashed=0;verticalLabelPosition=bottom;verticalAlign=top;align=center;html=1;fontSize=12;fontStyle=0;aspect=fixed;pointerEvents=1;shape=mxgraph.aws4.gear;" vertex="1" parent="1">
          <mxGeometry x="170" y="160" width="50" height="50" as="geometry" />
        </mxCell>
        <mxCell id="nEnXex_U3Cf0WmQbwt_v-11" value="" style="sketch=0;outlineConnect=0;fontColor=#232F3E;gradientColor=none;fillColor=#232F3D;strokeColor=none;dashed=0;verticalLabelPosition=bottom;verticalAlign=top;align=center;html=1;fontSize=12;fontStyle=0;aspect=fixed;pointerEvents=1;shape=mxgraph.aws4.gear;" vertex="1" parent="1">
          <mxGeometry x="250" y="160" width="50" height="50" as="geometry" />
        </mxCell>
        <mxCell id="nEnXex_U3Cf0WmQbwt_v-12" value="" style="sketch=0;outlineConnect=0;fontColor=#232F3E;gradientColor=none;fillColor=#232F3D;strokeColor=none;dashed=0;verticalLabelPosition=bottom;verticalAlign=top;align=center;html=1;fontSize=12;fontStyle=0;aspect=fixed;pointerEvents=1;shape=mxgraph.aws4.gear;" vertex="1" parent="1">
          <mxGeometry x="330" y="160" width="50" height="50" as="geometry" />
        </mxCell>
        <mxCell id="nEnXex_U3Cf0WmQbwt_v-14" value="" style="shape=mxgraph.bpmn.data;labelPosition=center;verticalLabelPosition=bottom;align=center;verticalAlign=top;size=15;html=1;bpmnTransferType=none;isCollection=1;" vertex="1" parent="1">
          <mxGeometry x="601.5" y="270" width="40" height="60" as="geometry" />
        </mxCell>
        <mxCell id="nEnXex_U3Cf0WmQbwt_v-15" value="" style="shape=mxgraph.bpmn.data;labelPosition=center;verticalLabelPosition=bottom;align=center;verticalAlign=top;size=15;html=1;bpmnTransferType=none;isCollection=1;" vertex="1" parent="1">
          <mxGeometry x="671.5" y="270" width="40" height="60" as="geometry" />
        </mxCell>
        <mxCell id="nEnXex_U3Cf0WmQbwt_v-55" style="edgeStyle=orthogonalEdgeStyle;rounded=0;orthogonalLoop=1;jettySize=auto;html=1;entryX=0.5;entryY=0.5;entryDx=0;entryDy=0;entryPerimeter=0;" edge="1" parent="1" source="nEnXex_U3Cf0WmQbwt_v-18" target="nEnXex_U3Cf0WmQbwt_v-50">
          <mxGeometry relative="1" as="geometry" />
        </mxCell>
        <mxCell id="nEnXex_U3Cf0WmQbwt_v-56" style="edgeStyle=orthogonalEdgeStyle;rounded=0;orthogonalLoop=1;jettySize=auto;html=1;entryX=0;entryY=0.5;entryDx=0;entryDy=0;" edge="1" parent="1" source="nEnXex_U3Cf0WmQbwt_v-18" target="nEnXex_U3Cf0WmQbwt_v-51">
          <mxGeometry relative="1" as="geometry" />
        </mxCell>
        <mxCell id="nEnXex_U3Cf0WmQbwt_v-18" value="openstates.org" style="verticalAlign=top;align=left;spacingTop=8;spacingLeft=2;spacingRight=12;shape=cube;size=10;direction=south;fontStyle=4;html=1;rounded=0;shadow=0;comic=0;labelBackgroundColor=none;strokeWidth=1;fontFamily=Verdana;fontSize=12" vertex="1" parent="1">
          <mxGeometry x="1000" y="-20" width="240" height="150" as="geometry" />
        </mxCell>
        <mxCell id="nEnXex_U3Cf0WmQbwt_v-19" value="Website &amp;amp; GraphQL API" style="text;html=1;strokeColor=none;fillColor=none;align=center;verticalAlign=middle;whiteSpace=wrap;rounded=0;" vertex="1" parent="1">
          <mxGeometry x="1000" y="10" width="140" height="30" as="geometry" />
        </mxCell>
        <mxCell id="nEnXex_U3Cf0WmQbwt_v-23" value="" style="sketch=0;pointerEvents=1;shadow=0;dashed=0;html=1;strokeColor=none;fillColor=#505050;labelPosition=center;verticalLabelPosition=bottom;verticalAlign=top;outlineConnect=0;align=center;shape=mxgraph.office.sites.website_public;" vertex="1" parent="1">
          <mxGeometry x="1170" y="2" width="58" height="48" as="geometry" />
        </mxCell>
        <mxCell id="nEnXex_U3Cf0WmQbwt_v-25" value="" style="shape=image;html=1;verticalAlign=top;verticalLabelPosition=bottom;labelBackgroundColor=#ffffff;imageAspect=0;aspect=fixed;image=https://cdn3.iconfinder.com/data/icons/brands-pack/240/graphql-128.png" vertex="1" parent="1">
          <mxGeometry x="1170" y="60" width="58" height="58" as="geometry" />
        </mxCell>
        <mxCell id="nEnXex_U3Cf0WmQbwt_v-52" style="edgeStyle=orthogonalEdgeStyle;rounded=0;orthogonalLoop=1;jettySize=auto;html=1;" edge="1" parent="1" source="nEnXex_U3Cf0WmQbwt_v-30" target="nEnXex_U3Cf0WmQbwt_v-51">
          <mxGeometry relative="1" as="geometry" />
        </mxCell>
        <mxCell id="nEnXex_U3Cf0WmQbwt_v-30" value="api-v3" style="verticalAlign=top;align=left;spacingTop=8;spacingLeft=2;spacingRight=12;shape=cube;size=10;direction=south;fontStyle=4;html=1;rounded=0;shadow=0;comic=0;labelBackgroundColor=none;strokeWidth=1;fontFamily=Verdana;fontSize=12" vertex="1" parent="1">
          <mxGeometry x="1000" y="200" width="240" height="150" as="geometry" />
        </mxCell>
        <mxCell id="nEnXex_U3Cf0WmQbwt_v-31" value="API v3" style="text;html=1;strokeColor=none;fillColor=none;align=center;verticalAlign=middle;whiteSpace=wrap;rounded=0;" vertex="1" parent="1">
          <mxGeometry x="1000" y="230" width="50" height="30" as="geometry" />
        </mxCell>
        <mxCell id="nEnXex_U3Cf0WmQbwt_v-34" value="" style="sketch=0;html=1;dashed=0;whitespace=wrap;fillColor=#2875E2;strokeColor=#ffffff;points=[[0.005,0.63,0],[0.1,0.2,0],[0.9,0.2,0],[0.5,0,0],[0.995,0.63,0],[0.72,0.99,0],[0.5,1,0],[0.28,0.99,0]];verticalLabelPosition=bottom;align=center;verticalAlign=top;shape=mxgraph.kubernetes.icon;prIcon=api" vertex="1" parent="1">
          <mxGeometry x="1178" y="251" width="50" height="48" as="geometry" />
        </mxCell>
        <mxCell id="nEnXex_U3Cf0WmQbwt_v-54" style="edgeStyle=orthogonalEdgeStyle;rounded=0;orthogonalLoop=1;jettySize=auto;html=1;entryX=0.5;entryY=0.5;entryDx=0;entryDy=0;entryPerimeter=0;" edge="1" parent="1" source="nEnXex_U3Cf0WmQbwt_v-43" target="nEnXex_U3Cf0WmQbwt_v-49">
          <mxGeometry relative="1" as="geometry" />
        </mxCell>
        <mxCell id="nEnXex_U3Cf0WmQbwt_v-43" value="documentation" style="verticalAlign=top;align=left;spacingTop=8;spacingLeft=2;spacingRight=12;shape=cube;size=10;direction=south;fontStyle=4;html=1;rounded=0;shadow=0;comic=0;labelBackgroundColor=none;strokeWidth=1;fontFamily=Verdana;fontSize=12" vertex="1" parent="1">
          <mxGeometry x="1000" y="425" width="240" height="150" as="geometry" />
        </mxCell>
        <mxCell id="nEnXex_U3Cf0WmQbwt_v-44" value="Developer Documentation - you&#39;re reading it now" style="text;html=1;strokeColor=none;fillColor=none;align=left;verticalAlign=middle;whiteSpace=wrap;rounded=0;" vertex="1" parent="1">
          <mxGeometry x="1000" y="455" width="230" height="35" as="geometry" />
        </mxCell>
        <mxCell id="nEnXex_U3Cf0WmQbwt_v-46" value="" style="image;aspect=fixed;perimeter=ellipsePerimeter;html=1;align=center;shadow=0;dashed=0;spacingTop=3;image=img/lib/active_directory/documents.svg;" vertex="1" parent="1">
          <mxGeometry x="1040" y="500" width="33" height="50" as="geometry" />
        </mxCell>
        <mxCell id="nEnXex_U3Cf0WmQbwt_v-47" value="" style="image;aspect=fixed;perimeter=ellipsePerimeter;html=1;align=center;shadow=0;dashed=0;spacingTop=3;image=img/lib/active_directory/documents.svg;" vertex="1" parent="1">
          <mxGeometry x="1100" y="500" width="33" height="50" as="geometry" />
        </mxCell>
        <mxCell id="nEnXex_U3Cf0WmQbwt_v-48" value="" style="sketch=0;pointerEvents=1;shadow=0;dashed=0;html=1;strokeColor=none;fillColor=#505050;labelPosition=center;verticalLabelPosition=bottom;verticalAlign=top;outlineConnect=0;align=center;shape=mxgraph.office.sites.website_public;" vertex="1" parent="1">
          <mxGeometry x="1170" y="502" width="58" height="48" as="geometry" />
        </mxCell>
        <mxCell id="nEnXex_U3Cf0WmQbwt_v-53" style="edgeStyle=orthogonalEdgeStyle;rounded=0;orthogonalLoop=1;jettySize=auto;html=1;" edge="1" parent="1" source="nEnXex_U3Cf0WmQbwt_v-49" target="nEnXex_U3Cf0WmQbwt_v-51">
          <mxGeometry relative="1" as="geometry" />
        </mxCell>
        <mxCell id="nEnXex_U3Cf0WmQbwt_v-49" value="Developer" style="shape=umlActor;verticalLabelPosition=bottom;verticalAlign=top;html=1;outlineConnect=0;" vertex="1" parent="1">
          <mxGeometry x="1440" y="470" width="30" height="60" as="geometry" />
        </mxCell>
        <mxCell id="nEnXex_U3Cf0WmQbwt_v-50" value="User" style="shape=umlActor;verticalLabelPosition=bottom;verticalAlign=top;html=1;outlineConnect=0;" vertex="1" parent="1">
          <mxGeometry x="1440" y="25" width="30" height="60" as="geometry" />
        </mxCell>
        <mxCell id="nEnXex_U3Cf0WmQbwt_v-51" value="Application" style="image;aspect=fixed;perimeter=ellipsePerimeter;html=1;align=center;shadow=0;dashed=0;spacingTop=3;image=img/lib/active_directory/generic_server.svg;" vertex="1" parent="1">
          <mxGeometry x="1424.48" y="221" width="61.04" height="109" as="geometry" />
        </mxCell>
        <mxCell id="nEnXex_U3Cf0WmQbwt_v-57" style="edgeStyle=orthogonalEdgeStyle;orthogonalLoop=1;jettySize=auto;html=1;entryX=0.5;entryY=0.5;entryDx=0;entryDy=0;entryPerimeter=0;jumpStyle=gap;shadow=0;rounded=1;strokeWidth=1;" edge="1" parent="1" source="nEnXex_U3Cf0WmQbwt_v-18" target="nEnXex_U3Cf0WmQbwt_v-49">
          <mxGeometry relative="1" as="geometry">
            <Array as="points">
              <mxPoint x="1280" y="55" />
              <mxPoint x="1280" y="500" />
            </Array>
          </mxGeometry>
        </mxCell>
      </root>
    </mxGraphModel>
  </diagram>
</mxfile>
